# xmcd
#
# Track frame offsets:
# 183
# 9605
# 20830
# 31108
# 42848
# 56255
# 68963
# 83010
# 92780
# 102533
# 113583
# 123858
# 134303
# 145865
# 157455
# 167373
# 178635
# 188808
# 197185
# 206705
#
# Disc length: 2883 seconds
#
#
# Revision: 1
# Processed by: cddbd v1.5.1PL2 Copyright (c) Steve Scherf et al.
# Submitted via: FreeRIP 2.931 
#
DISCID=140b4114
DTITLE=Various Artist - Rhythm' n' Blues Gems [CD 4)
DYEAR=1985
DGENRE=Blues
TTITLE0=Hank Ballard and The Midnighters - The Twist
TTITLE1=Myles and Dupont - Load mouth Annie
TTITLE2=Charles Williams - What Can I Do
TTITLE3=Ernie K-Doe - Mother-In-Law
TTITLE4=Ike and Tina Turner - It's Crazy Baby
TTITLE5=Ricky Allen - Cut You A Loose
TTITLE6=Bo Diddley - You Can't Judge A Book By Looking At The Cover
TTITLE7=Fats Domino - When I'm Walkin' (Let Me Walk)
TTITLE8=Lee Dorsey - Can You Hear Me
TTITLE9=Sugar Boy Crawford - Jockomo
TTITLE10=Dee clark - Seven Days
TTITLE11=Jay Richards - Hey little Shyrel
TTITLE12=Lilian Offitt - My Man Is A Lover
TTITLE13=Rosco Gordon - Surley
TTITLE14=The Showmen - It Will Stand
TTITLE15=The Hi-Lighters - Feeling Alright
TTITLE16=Big Moose and The Jams - The Bright Sound
TTITLE17=Eddie Bo - Walk That Walk
TTITLE18=Allen Brooks - Foolish Woman
TTITLE19=T. V. Slim/Flat Foot Sam
EXTD=
EXTT0=
EXTT1=
EXTT2=
EXTT3=
EXTT4=
EXTT5=
EXTT6=
EXTT7=
EXTT8=
EXTT9=
EXTT10=
EXTT11=
EXTT12=
EXTT13=
EXTT14=
EXTT15=
EXTT16=
EXTT17=
EXTT18=
EXTT19=
PLAYORDER=
